<svg xmlns="http://www.w3.org/2000/svg" data-name="Ebene 1" viewBox="0 0 366 394">
    <defs>
        <linearGradient id="a" x2="366" y1="197" y2="197" gradientUnits="userSpaceOnUse">
            <stop offset="0" stop-color="#a770ef"/>
            <stop offset=".4" stop-color="#cf8bf3"/>
            <stop offset="1" stop-color="#fdb99b"/>
        </linearGradient>
        <linearGradient id="b" x1="183" x2="183" y1="1" y2="393" gradientUnits="userSpaceOnUse">
            <stop offset="0" stop-color="#e84e1b" stop-opacity=".5"/>
            <stop offset="1" stop-color="#e84e1b" stop-opacity="0"/>
        </linearGradient>
    </defs>
    <path fill="url(#a)" d="M335.4 316.5l-123.2 68.9a59.8 59.8 0 0 1-58.4 0l-123.2-69a59.8 59.8 0 0 1-30.6-52V129.7a59.8 59.8 0 0 1 30.6-52.2L153.8 8.6a59.8 59.8 0 0 1 58.4 0l123.2 69a59.8 59.8 0 0 1 30.6 52.1v134.6a59.8 59.8 0 0 1-30.6 52.2z"/>
    <path fill="url(#b)" d="M335.4 316.5l-123.2 68.9a59.8 59.8 0 0 1-58.4 0l-123.2-69a59.8 59.8 0 0 1-30.6-52V129.7a59.8 59.8 0 0 1 30.6-52.2L153.8 8.6a59.8 59.8 0 0 1 58.4 0l123.2 69a59.8 59.8 0 0 1 30.6 52.1v134.6a59.8 59.8 0 0 1-30.6 52.2z"/>
    <path fill="#fff" d="M126.7 237.2a13.7 13.7 0 1 1-13.7 13.7 13.8 13.8 0 0 1 13.7-13.7m0-5.4a19.1 19.1 0 1 0 19.1 19.1 19.1 19.1 0 0 0-19-19z"/>
    <circle cx="126.7" cy="251.2" r="8.7" fill="#fff"/>
    <path fill="#fff" d="M260.1 236.1a13.7 13.7 0 1 1-13.7 13.8A13.8 13.8 0 0 1 260 236m0-5.3a19.1 19.1 0 1 0 19.1 19 19.1 19.1 0 0 0-19-19z"/>
    <circle cx="260.1" cy="250.2" r="8.7" fill="#fff"/>
    <path fill="#fff" d="M58.2 234.2h47.6a25.9 25.9 0 0 0-5.2 15.7H76.3l-18.5-4.7a1.6 1.6 0 0 1-1.2-1.6V236a1.6 1.6 0 0 1 1.6-1.7zM283 195.9L269 154v-8.8a1.6 1.6 0 0 0-1.6-1.7H227a1.6 1.6 0 0 0-1.6 1.7v89h-77.8a25.8 25.8 0 0 1 5.2 15.6h81.4a26.1 26.1 0 0 1 49.4-11.9 25.6 25.6 0 0 1 2.8 10v1.9h19.4a1.6 1.6 0 0 0 1.6-1.7v-39.7a3.3 3.3 0 0 0-2-3zm-45.3 0l-.8-38.7h24.4l11.2 38.7zM125.3 170a4.8 4.8 0 0 0-1.5-.4 13.4 13.4 0 0 0-1.8-.2h-3.8v5.9h3.4l1.9-.1a5.5 5.5 0 0 0 1.7-.4 2.3 2.3 0 0 0 1.5-2.4 2.7 2.7 0 0 0-.4-1.5 2.6 2.6 0 0 0-1-.9z"/>
    <path fill="#fff" d="M216.6 130H60.1a1.6 1.6 0 0 0-1.7 1.6v95a1.6 1.6 0 0 0 1.7 1.7h156.5a1.6 1.6 0 0 0 1.7-1.7v-95a1.6 1.6 0 0 0-1.7-1.6z"/>
</svg>