<svg xmlns="http://www.w3.org/2000/svg" data-name="Ebene 1" viewBox="0 0 366 394">
    <defs>
        <linearGradient id="a" x2="366" y1="197" y2="197" gradientUnits="userSpaceOnUse">
            <stop offset="0" stop-color="#eec233"/>
            <stop offset="1" stop-color="#22c1c3"/>
        </linearGradient>
        <linearGradient id="b" x1="183" x2="183" y1="1" y2="393" gradientUnits="userSpaceOnUse">
            <stop offset="0" stop-color="#93c01f"/>
            <stop offset=".1" stop-color="#93c01f" stop-opacity=".8"/>
            <stop offset=".3" stop-color="#93c01f" stop-opacity=".6"/>
            <stop offset=".4" stop-color="#93c01f" stop-opacity=".3"/>
            <stop offset=".6" stop-color="#93c01f" stop-opacity=".2"/>
            <stop offset=".7" stop-color="#93c01f" stop-opacity=".1"/>
            <stop offset=".9" stop-color="#93c01f" stop-opacity="0"/>
            <stop offset="1" stop-color="#93c01f" stop-opacity="0"/>
        </linearGradient>
    </defs>
    <path fill="url(#a)" d="M335.4 316.5l-123.2 68.9a59.8 59.8 0 0 1-58.4 0l-123.2-69a59.8 59.8 0 0 1-30.6-52V129.7a59.8 59.8 0 0 1 30.6-52.2L153.8 8.6a59.8 59.8 0 0 1 58.4 0l123.2 69a59.8 59.8 0 0 1 30.6 52.1v134.6a59.8 59.8 0 0 1-30.6 52.2z"/>
    <path fill="url(#b)" d="M335.4 316.5l-123.2 68.9a59.8 59.8 0 0 1-58.4 0l-123.2-69a59.8 59.8 0 0 1-30.6-52V129.7a59.8 59.8 0 0 1 30.6-52.2L153.8 8.6a59.8 59.8 0 0 1 58.4 0l123.2 69a59.8 59.8 0 0 1 30.6 52.1v134.6a59.8 59.8 0 0 1-30.6 52.2z"/>
    <path fill="#fff" d="M140 272.4a37.7 37.7 0 0 0 3.5-75.3h-7l.2-25.1h6.6a25.3 25.3 0 0 0-3.3-50.3 25.2 25.2 0 0 0-25.2 24.9H89.6a50.4 50.4 0 0 1 50.3-50.1 50.5 50.5 0 0 1 50.4 50.3 49.4 49.4 0 0 1-14.9 35.7A63 63 0 1 1 77 234.6h25.2a37.7 37.7 0 0 0 37.7 37.8zm84-9.5v10.2l21.9 6.4-21.9 6.3v10.3l34.6-11.8h25.2v-9.7h-25.2L224 262.9zm50.2-20.6h-15.9v-14.4h-9.2v14.4h-15.9v-16.6H224V252h59.8v-26.3h-9.6v16.6zM224 196v8l59.8 13.3v-9.7l-12.6-2.5v-10.3l12.6-2.5v-9.7l-59.3 13.2zm38 .6v6.8l-17.6-3.4zm-11.1-52.8a22.4 22.4 0 0 0-9-1.7c-11.9 0-17.8 5.2-17.8 15.5v14h59.7V162h-25v-4l25-7.7V140l-27 9.1a12.9 12.9 0 0 0-6-5.4zm-9.2 8a26.7 26.7 0 0 1 3.8.2 7 7 0 0 1 2.6.9 3.9 3.9 0 0 1 1.5 1.7 7.9 7.9 0 0 1 .6 3.3v4.1h-17v-3.7a9.4 9.4 0 0 1 .5-3.5 4 4 0 0 1 1.5-1.9 6.5 6.5 0 0 1 2.7-.9 26.7 26.7 0 0 1 3.8-.2zM228.5 126a15.2 15.2 0 0 0 5.3 2.8 22 22 0 0 0 6.4 1 21 21 0 0 0 9.5-2 14 14 0 0 0 6.1-7.6l2.5-6a19.3 19.3 0 0 1 1.2-2.4 3.7 3.7 0 0 1 1.2-1.3 5.4 5.4 0 0 1 2.2-.6 34.8 34.8 0 0 1 3.7-.2l3.5.2a6.5 6.5 0 0 1 2.5.7 3.6 3.6 0 0 1 1.5 1.6 6.8 6.8 0 0 1 .6 3c0 1.9-.6 3.2-1.6 4a6.2 6.2 0 0 1-3.8 1.2H266v9.7h3.8a14.4 14.4 0 0 0 10.3-4.3 14.4 14.4 0 0 0 3-4.7 15.6 15.6 0 0 0 1.2-6 16.6 16.6 0 0 0-1.4-7 12.3 12.3 0 0 0-3.8-4.7 15.2 15.2 0 0 0-5.6-2.6 31 31 0 0 0-7-.7 45.3 45.3 0 0 0-5.8.3 15 15 0 0 0-4.6 1.3 10.9 10.9 0 0 0-3.6 2.8 16.6 16.6 0 0 0-2.6 4.7l-2.6 6.4a12.6 12.6 0 0 1-1.2 2.5 4.1 4.1 0 0 1-1.4 1.3 4.6 4.6 0 0 1-1.8.5l-2.8.1a15.2 15.2 0 0 1-2.7-.2 6.4 6.4 0 0 1-2.2-.8 4.3 4.3 0 0 1-1.5-1.5 5 5 0 0 1-.5-2.5c0-2 .6-3.3 1.8-4a8.4 8.4 0 0 1 4.6-1.3h2.5v-9.6h-4.7a13 13 0 0 0-5 1 14.3 14.3 0 0 0-4.5 3 15 15 0 0 0-3.2 4.6 14.6 14.6 0 0 0-1.2 6 15.4 15.4 0 0 0 1.4 6.6 13.4 13.4 0 0 0 3.6 4.7z"/>
</svg>