<svg xmlns="http://www.w3.org/2000/svg" data-name="Ebene 1" viewBox="0 0 366 394">
    <defs>
        <linearGradient id="a" x2="366" y1="197" y2="197" gradientUnits="userSpaceOnUse">
            <stop offset="0" stop-color="#2a94ea"/>
            <stop offset="1" stop-color="#2442bc"/>
        </linearGradient>
        <linearGradient id="b" x1="183" x2="183" y1="1" y2="393" gradientUnits="userSpaceOnUse">
            <stop offset="0" stop-color="#77bde5"/>
            <stop offset=".1" stop-color="#6db7e6" stop-opacity=".9"/>
            <stop offset=".2" stop-color="#58aae8" stop-opacity=".7"/>
            <stop offset=".3" stop-color="#459ee9" stop-opacity=".5"/>
            <stop offset=".5" stop-color="#3695eb" stop-opacity=".3"/>
            <stop offset=".6" stop-color="#2a8dec" stop-opacity=".2"/>
            <stop offset=".7" stop-color="#2288ec" stop-opacity=".1"/>
            <stop offset=".9" stop-color="#1d85ed" stop-opacity="0"/>
            <stop offset="1" stop-color="#1b84ed" stop-opacity="0"/>
        </linearGradient>
    </defs>
    <path fill="url(#a)" d="M335.4 316.5l-123.2 68.9a59.8 59.8 0 0 1-58.4 0l-123.2-69a59.8 59.8 0 0 1-30.6-52V129.7a59.8 59.8 0 0 1 30.6-52.2L153.8 8.6a59.8 59.8 0 0 1 58.4 0l123.2 69a59.8 59.8 0 0 1 30.6 52.1v134.6a59.8 59.8 0 0 1-30.6 52.2z"/>
    <path fill="url(#b)" d="M335.4 316.5l-123.2 68.9a59.8 59.8 0 0 1-58.4 0l-123.2-69a59.8 59.8 0 0 1-30.6-52V129.7a59.8 59.8 0 0 1 30.6-52.2L153.8 8.6a59.8 59.8 0 0 1 58.4 0l123.2 69a59.8 59.8 0 0 1 30.6 52.1v134.6a59.8 59.8 0 0 1-30.6 52.2z"/>
    <path fill="#edcb69" d="M61.3 181l4.6 9.3 10.3 1.5-7.4 7.2 1.7 10.2-9.2-4.8-9.1 4.8 1.7-10.2-7.4-7.2 10.3-1.5 4.5-9.3zm244.4 0l4.6 9.3 10.2 1.5-7.4 7.2 1.7 10.2-9.1-4.8-9.2 4.8 1.8-10.2-7.5-7.2 10.3-1.5 4.6-9.3zM185 308.8l4.6 9.3 10.2 1.5-7.4 7.2 1.8 10.3-9.2-4.9-9.2 4.9 1.8-10.3-7.4-7.2 10.2-1.5 4.6-9.3zm-66.7-24.7l4.6 9.2 10.2 1.5-7.4 7.3 1.8 10.2-9.2-4.9-9.2 4.9 1.8-10.2-7.5-7.3 10.3-1.5 4.6-9.2zm0-206.8l4.6 9.3 10.2 1.5-7.4 7.2 1.8 10.2-9.2-4.8-9.2 4.8 1.8-10.2-7.5-7.2 10.3-1.5 4.6-9.3zm133.4 206.8l4.6 9.2 10.3 1.5-7.5 7.3 1.8 10.2-9.2-4.9-9.1 4.9 1.7-10.2-7.4-7.3 10.2-1.5 4.6-9.2zm0-200.8l4.6 9.3 10.3 1.5-7.5 7.2 1.8 10.2-9.2-4.8-9.1 4.8 1.7-10.2-7.4-7.2 10.2-1.5 4.6-9.3zm42 155.8l4.6 9.3 10.2 1.5-7.4 7.2 1.8 10.2-9.2-4.8-9.2 4.8 1.8-10.2-7.5-7.2 10.3-1.5 4.6-9.3zm0-113.9l4.6 9.3 10.2 1.5-7.4 7.2 1.8 10.3-9.2-4.9-9.2 4.9 1.8-10.3-7.5-7.2 10.3-1.5 4.6-9.3zm-220.4 0l4.6 9.3 10.3 1.5-7.4 7.2 1.7 10.3-9.2-4.9-9.1 4.9 1.7-10.3-7.4-7.2 10.3-1.5 4.5-9.3zm-1.9 113.9l4.6 9.3 10.3 1.5-7.5 7.2 1.8 10.2-9.2-4.8-9.1 4.8 1.7-10.2-7.4-7.2 10.2-1.5 4.6-9.3zM185 58.5l4.6 9.3 10.2 1.5-7.4 7.2 1.8 10.2-9.2-4.8-9.2 4.8 1.8-10.2-7.4-7.2 10.2-1.5 4.6-9.3z"/>
    <path fill="#fff" d="M114.8 226.2a8.8 8.8 0 1 1-8.7 8.7 8.8 8.8 0 0 1 8.7-8.7m0-3.5A12.2 12.2 0 1 0 127 235a12.2 12.2 0 0 0-12.2-12.1z"/>
    <circle cx="114.8" cy="235.1" r="5.6" fill="#fff"/>
    <path fill="#fff" d="M195.8 226.2a8.8 8.8 0 1 1-8.8 8.7 8.8 8.8 0 0 1 8.8-8.7m0-3.5A12.2 12.2 0 1 0 208 235a12.2 12.2 0 0 0-12.2-12.1z"/>
    <circle cx="195.8" cy="235.1" r="5.6" fill="#fff"/>
    <path fill="#fff" d="M102.1 212.3v7.2a1.6 1.6 0 0 0 2.4 1.3 18.4 18.4 0 0 1 10-3 17.6 17.6 0 0 1 17.6 19.3c0 .9-.2 2.5-.4 2.5h47.5a16.4 16.4 0 0 1-.6-4.4c0-11 10.2-19.4 21.7-17a17.2 17.2 0 0 1 13.4 17 16 16 0 0 1-.6 4.4h9a2 2 0 0 0 2-2v-12.4h49.5v-3.7l-49.5-4v-73.1a2.3 2.3 0 0 0-2.3-2.3h-5.4a2.3 2.3 0 0 0-2.3 2.3v72.8l-11.6-3.5-27.8-68.7a4.6 4.6 0 0 0-4.3-2.9H122a6.7 6.7 0 0 0-6.4 6.4l-3.8 58h-4a5.7 5.7 0 0 0-5.7 5.8zm82.9-15.9h-62.6l1.5-44.6h44z"/>
    <path fill="#fff" d="M271.4 186.6v35l-39.3-3.2v-31.8z"/>
</svg>