<svg xmlns="http://www.w3.org/2000/svg" viewBox="0 0 366 394">
    <defs>
        <linearGradient id="a" x2="366" y1="197" y2="197" gradientUnits="userSpaceOnUse">
            <stop offset="0" stop-color="#8b85e0"/>
            <stop offset="1" stop-color="#49a7e8"/>
        </linearGradient>
        <linearGradient id="b" x1="183" x2="183" y1="1" y2="393" gradientUnits="userSpaceOnUse">
            <stop offset="0" stop-color="#22c1c3"/>
            <stop offset=".1" stop-color="#22c1c3" stop-opacity=".8"/>
            <stop offset=".3" stop-color="#22c1c3" stop-opacity=".5"/>
            <stop offset=".4" stop-color="#22c1c3" stop-opacity=".3"/>
            <stop offset=".6" stop-color="#22c1c3" stop-opacity=".2"/>
            <stop offset=".7" stop-color="#22c1c3" stop-opacity=".1"/>
            <stop offset=".9" stop-color="#22c1c3" stop-opacity="0"/>
            <stop offset="1" stop-color="#22c1c3" stop-opacity="0"/>
        </linearGradient>
    </defs>
    <g data-name="Ebene 1">
        <path fill="url(#a)" d="M335.4 316.5l-123.2 68.9a59.8 59.8 0 0 1-58.4 0l-123.2-69a59.8 59.8 0 0 1-30.6-52V129.7a59.8 59.8 0 0 1 30.6-52.2L153.8 8.6a59.8 59.8 0 0 1 58.4 0l123.2 69a59.8 59.8 0 0 1 30.6 52.1v134.6a59.8 59.8 0 0 1-30.6 52.2z"/>
        <path fill="url(#b)" d="M335.4 316.5l-123.2 68.9a59.8 59.8 0 0 1-58.4 0l-123.2-69a59.8 59.8 0 0 1-30.6-52V129.7a59.8 59.8 0 0 1 30.6-52.2L153.8 8.6a59.8 59.8 0 0 1 58.4 0l123.2 69a59.8 59.8 0 0 1 30.6 52.1v134.6a59.8 59.8 0 0 1-30.6 52.2z"/>
        <path fill="#fff" d="M199.7 251.3h8.6q5 0 7.6 2.7t2.6 7.7v19q0 5.6-2.8 8.3t-7.9 2.7h-8zm5.8 35h2.7a4.3 4.3 0 0 0 3.5-1.2 5.9 5.9 0 0 0 1-3.9v-19.5a6.1 6.1 0 0 0-1-3.7q-1-1.3-3.6-1.3h-2.6zm26.5-35h4.8l9 40.4H240l-1.7-8.7h-7.9l-1.7 8.7H223zm2.4 11.6l-3 14.7h5.9zm19.4 11.7l-8-23.3h6.1l4.7 16 4.7-16h6.2l-8 23.3v17.1h-5.8zm37-11.6H285v-1.4a6.2 6.2 0 0 0-1-3.4 3.5 3.5 0 0 0-3-1.5 3.8 3.8 0 0 0-2 .5 3.4 3.4 0 0 0-1.3 1.1 4.9 4.9 0 0 0-.6 1.7 11 11 0 0 0-.2 2 20.1 20.1 0 0 0 .1 2 3.6 3.6 0 0 0 .5 1.4 3.3 3.3 0 0 0 1 1 9 9 0 0 0 1.7 1l4.5 1.7a11 11 0 0 1 3.1 1.8 7 7 0 0 1 1.8 2.3 9.9 9.9 0 0 1 1 3 30.9 30.9 0 0 1 .1 4 20.8 20.8 0 0 1-.5 4.7 10 10 0 0 1-1.6 3.8 8 8 0 0 1-3.1 2.5 11 11 0 0 1-4.7.9 10.3 10.3 0 0 1-4-.8 9.3 9.3 0 0 1-5.1-5 9.4 9.4 0 0 1-.8-3.8v-2.2h5.8v1.8a4.7 4.7 0 0 0 1 2.9 3.6 3.6 0 0 0 3 1.3 5 5 0 0 0 2.4-.4 3 3 0 0 0 1.2-1.2 5 5 0 0 0 .6-2v-2.4a24.6 24.6 0 0 0 0-2.6 4.2 4.2 0 0 0-.5-1.7 3 3 0 0 0-1-1 13.7 13.7 0 0 0-1.7-.8l-4.2-1.7a9.2 9.2 0 0 1-5-4.1 14 14 0 0 1-1.3-6.3 14.7 14.7 0 0 1 .7-4.3 10 10 0 0 1 1.8-3.6 8.8 8.8 0 0 1 3-2.3 10.2 10.2 0 0 1 4.5-1 9.6 9.6 0 0 1 3.9.9 9.8 9.8 0 0 1 3 2 9.4 9.4 0 0 1 2 3 8.5 8.5 0 0 1 .7 3.3zm-45.5-162.6c-37.6 0-68 30.4-68 67.7a68 68 0 0 0 136 0 68 68 0 0 0-68-67.7zm0 110.4a42.7 42.7 0 1 1 42.9-42.7 42.8 42.8 0 0 1-43 42.7zm-134.9 64.5a37.1 37.1 0 0 0 3.5-74h-7l.3-24.8h6.4a24.9 24.9 0 0 0-3.2-49.5 24.8 24.8 0 0 0-24.8 24.5H61c0-27 22.3-49.3 49.5-49.3a49.7 49.7 0 0 1 49.5 49.6 48.6 48.6 0 0 1-14.6 35.1 62 62 0 1 1-96.8 51.2h24.8a37 37 0 0 0 37.1 37.2z"/>
    </g>
</svg>